<!-- Generated by IcoMoon.io -->
<svg version="1.1" xmlns="http://www.w3.org/2000/svg" width="39" height="32" viewBox="0 0 39 32">
<path fill="#fed136" d="M31.656 0h-25.324c-2.098 0-3.799 1.701-3.799 3.798v16.461c0 0.444 0.076 0.87 0.216 1.266h-0.216v2.532h3.799v-20.26h25.324v20.26h3.799v-2.532h-0.216c0.14-0.396 0.216-0.822 0.216-1.266v-16.461c0-2.098-1.701-3.798-3.799-3.798zM2.532 26.59h32.922c1.398 0 2.532 1.134 2.532 2.533s-2.4 2.532-3.799 2.532h-30.389c-1.399 0-3.799-1.134-3.799-2.532s1.134-2.533 2.532-2.533zM22.792 29.123h-7.597c-0.699 0-1.266 0.283-1.266 0.633s0.567 0.633 1.266 0.633h7.597c0.699 0 1.266-0.284 1.266-0.633s-0.567-0.633-1.266-0.633zM10.491 14.855l1.783-1.791c0.492-0.494 1.29-0.494 1.783 0l2.337 2.348 7.532-7.565c0.492-0.495 1.291-0.495 1.783 0l1.783 1.79c0.492 0.495 0.492 1.297 0 1.791l-9.805 9.849c-0.422 0.423-1.067 0.484-1.553 0.183-0.412 0.098-0.863-0.014-1.184-0.336l-4.457-4.477c-0.492-0.494-0.492-1.296 0-1.791z"></path>
</svg>
