<!-- Generated by IcoMoon.io -->
<svg version="1.1" xmlns="http://www.w3.org/2000/svg" width="24" height="32" viewBox="0 0 24 32">
<path fill="#fed136" d="M11.789 0c4.341 0 7.859 3.079 7.859 6.877v7.859h0.982c1.628 0 2.947 1.319 2.947 2.947v10.806c0 1.628-1.32 2.947-2.947 2.947h-17.683c-1.628 0-2.947-1.32-2.947-2.947v-10.806c0-1.628 1.32-2.947 2.947-2.947h0.982v-7.859c0-3.798 3.519-6.877 7.859-6.877zM15.495 14.736h-7.412c-0.145-0.307-0.224-0.638-0.224-0.983v-6.876c0-1.628 1.759-2.947 3.93-2.947s3.93 1.32 3.93 2.947v6.876c0 0.345-0.079 0.675-0.224 0.983zM13.754 25.017c1.175-0.68 1.965-1.95 1.965-3.404 0-2.17-1.759-3.929-3.93-3.929s-3.93 1.759-3.93 3.929c0 1.455 0.79 2.725 1.965 3.404v1.508c0 1.086 0.88 1.965 1.965 1.965s1.965-0.879 1.965-1.965v-1.508z"></path>
</svg>
